<svg width="89" height="92" viewBox="0 0 89 92" fill="none" xmlns="http://www.w3.org/2000/svg">
<path d="M85.585 75.9207L83.0834 73.2893C82.9669 61.2629 79.9445 49.3094 74.3243 38.6728L73.0518 36.2646L78.0247 28.5576C78.9267 27.1595 78.9927 25.3836 78.1967 23.923C77.4008 22.4623 75.8727 21.5547 74.2092 21.5547H71.7153L54.3916 4.23105C51.6633 1.50275 48.0359 -3.05176e-05 44.1775 -3.05176e-05C40.3184 -3.05176e-05 36.691 1.50275 33.9627 4.23105L16.639 21.5547H14.2659C12.5834 21.5547 11.0476 22.4778 10.2573 23.9623C9.46695 25.4475 9.5596 27.2374 10.4995 28.6328L15.4514 35.9831L14.03 38.6728C8.40988 49.3087 5.38748 61.2622 5.27097 73.2893L2.77008 75.92C1.05182 77.7274 0.1232 80.0964 0.156891 82.5902C0.190583 85.0841 1.18308 87.4313 2.95117 89.1994L3.05576 89.304C5.25552 91.5044 8.38742 92.4373 11.433 91.8013L15.471 90.9576C17.2251 90.5912 19.0185 90.5014 20.7999 90.6916L22.0921 90.8292C29.4207 91.6097 36.7977 92 44.1775 92C51.5552 92 58.9358 91.6097 66.2622 90.8292L67.5544 90.6916C69.3359 90.5014 71.1292 90.5912 72.8833 90.9576L76.7571 91.7669C79.9044 92.4246 83.143 91.4595 85.4179 89.1846C87.1804 87.4221 88.168 85.0792 88.1995 82.5867C88.2311 80.0943 87.3025 77.7267 85.585 75.9207ZM36.5043 6.77194C38.5539 4.72238 41.2787 3.59372 44.1775 3.59372C47.0757 3.59372 49.8012 4.72238 51.8507 6.77194L66.6328 21.5547H21.7215L36.5043 6.77194ZM82.877 86.6437C81.4627 88.0581 79.4503 88.6575 77.492 88.249L73.6189 87.4397C71.497 86.9968 69.3289 86.8887 67.174 87.1182L65.8818 87.2558C51.4801 88.7902 36.8749 88.7895 22.4732 87.2558L21.181 87.1182C19.0262 86.888 16.8573 86.9968 14.7361 87.4397L10.6981 88.2834C8.84296 88.6708 6.93658 88.1023 5.59735 86.7638L5.49277 86.6585C3.20035 84.3668 3.14841 80.7372 5.37485 78.3964L8.36707 75.249C8.68503 74.9149 8.86191 74.472 8.86191 74.0109C8.86191 62.3242 11.7481 50.6852 17.2076 40.3517L18.2176 38.4405H36.9928C37.9853 38.4405 38.7897 37.6361 38.7897 36.6436C38.7897 35.6511 37.9853 34.8467 36.9928 34.8467H19.0185L13.4804 26.6246C13.1934 26.1992 13.3492 25.802 13.4299 25.6511C13.5099 25.5002 13.7528 25.1485 14.2659 25.1485H74.2092C74.7174 25.1485 74.9602 25.4938 75.041 25.6426C75.1224 25.7914 75.2803 26.1824 75.0052 26.6092L69.6903 34.8467H51.3629C50.3704 34.8467 49.566 35.6511 49.566 36.6436C49.566 37.6361 50.3704 38.4405 51.3629 38.4405H61.2408V44.5835C61.2408 45.576 62.0452 46.3804 63.0377 46.3804C64.0302 46.3804 64.8346 45.576 64.8346 44.5835V38.4405H68.8719V55.8315C68.8719 56.824 69.677 57.6284 70.6695 57.6284C71.6613 57.6284 72.4664 56.824 72.4664 55.8315V42.9832C77.0695 52.6414 79.4931 63.3061 79.4931 74.0109C79.4931 74.472 79.67 74.9156 79.988 75.2497L82.9809 78.3971C85.2059 80.7379 85.1603 84.3597 82.877 86.6437Z" fill="#2D9945"/>
<path d="M40.8815 9.28406C40.1796 8.58215 39.0418 8.58215 38.3399 9.28406C37.6387 9.98596 37.6387 11.1237 38.3399 11.8257L38.9603 12.4461C39.3113 12.7964 39.771 12.9719 40.2308 12.9719C40.6912 12.9719 41.151 12.7964 41.5019 12.4454C42.2031 11.7442 42.2031 10.6064 41.5012 9.90454L40.8815 9.28406Z" fill="#2D9945"/>
<path d="M35.5112 14.9765H34.8599C33.8681 14.9765 33.063 15.7809 33.063 16.7734C33.063 17.7659 33.8681 18.5703 34.8599 18.5703H35.5112C36.503 18.5703 37.3081 17.7659 37.3081 16.7734C37.3081 15.7809 36.5037 14.9765 35.5112 14.9765Z" fill="#2D9945"/>
<path d="M58.6151 76.2401C60.0589 74.5324 62.3085 71.2278 62.0965 67.4024C61.827 62.5698 57.5159 58.9522 56.3823 58.084C56.2286 57.945 56.0489 57.832 55.8503 57.752C55.2888 57.5252 54.6563 57.5996 54.165 57.9359C53.1178 54.034 49.7339 51.2039 48.7484 50.4507C48.5947 50.3118 48.415 50.1981 48.2157 50.118C47.6556 49.8934 47.0259 49.9671 46.5346 50.3012C45.486 46.4022 42.1056 43.5756 41.1208 42.8224C40.9664 42.6835 40.7867 42.5705 40.5874 42.4897C39.9529 42.235 39.2285 42.3627 38.7196 42.8189C38.5097 43.0063 33.5873 47.4782 33.8898 52.8955C33.9151 53.3517 33.979 53.7974 34.073 54.2305C33.6392 54.1371 33.1942 54.0733 32.7373 54.0473C27.3228 53.7434 22.8489 58.6672 22.6607 58.8771C22.2045 59.3867 22.0789 60.1111 22.3337 60.7456C22.4067 60.9281 22.5084 61.0937 22.6313 61.239C23.3219 62.1662 26.1366 65.6364 30.1402 66.697C29.8089 67.1869 29.7373 67.8145 29.9612 68.3732C30.0349 68.5557 30.136 68.7213 30.2596 68.8666C30.9502 69.7945 33.7677 73.2689 37.7748 74.3267C37.4351 74.8272 37.367 75.4708 37.6071 76.038C37.685 76.2205 37.7903 76.3861 37.918 76.5293C38.7723 77.6488 42.3941 81.9838 47.2449 82.254C47.4148 82.2639 47.5826 82.2681 47.7503 82.2681C51.3511 82.2681 54.4388 80.1581 56.0721 78.7803L59.5921 82.3004C59.9431 82.6513 60.4028 82.8261 60.8626 82.8261C61.3223 82.8261 61.7828 82.6513 62.133 82.3004C62.8349 81.5984 62.8349 80.4607 62.133 79.7588L58.6151 76.2401ZM55.3175 61.8841C56.6638 63.1749 58.3814 65.322 58.5084 67.6025C58.6425 70.0163 57.1439 72.3319 56.0721 73.6634C54.5946 72.3158 52.8623 70.1778 52.7387 67.9562C52.604 65.5424 54.1952 63.2121 55.3175 61.8841ZM47.685 54.2523C49.0313 55.5424 50.7488 57.6895 50.8759 59.97C51.01 62.3838 49.5107 64.7008 48.4396 66.0316C46.9614 64.6833 45.2298 62.546 45.1062 60.3237C45.0515 59.3495 45.281 58.39 45.6446 57.5035C45.7485 57.2901 45.8475 57.0704 45.9422 56.8458C46.4616 55.8105 47.1305 54.9085 47.685 54.2523ZM40.0574 46.624C41.4037 47.9141 43.1206 50.0612 43.2483 52.3417C43.3817 54.7555 41.8838 57.0711 40.812 58.4026C39.3338 57.0543 37.6022 54.9163 37.4779 52.6954C37.3439 50.2816 38.9351 47.952 40.0574 46.624ZM26.4686 60.2177C27.8015 59.0968 30.1374 57.5028 32.5379 57.6361C34.6156 57.752 36.6188 59.2737 37.9721 60.6789C37.977 60.6838 37.9805 60.688 37.9847 60.6929L38.0009 60.7084C38.0844 60.7961 38.1665 60.8839 38.2451 60.9702C36.915 62.0413 34.5945 63.5385 32.1842 63.4058C29.9051 63.2787 27.7594 61.564 26.4686 60.2177ZM34.0969 67.846C34.7742 67.2761 35.7105 66.5854 36.7824 66.0597C36.9375 65.993 37.0891 65.9228 37.2386 65.8519C38.1567 65.4596 39.1548 65.2076 40.1655 65.2637C42.0558 65.369 43.8828 66.6381 45.2164 67.924L45.6285 68.3367C45.7127 68.4244 45.7948 68.5114 45.8734 68.5978C44.5426 69.6689 42.2291 71.1674 39.8125 71.0334C37.5334 70.9063 35.3877 69.1916 34.0969 67.846ZM53.5059 76.2303C52.1751 77.3014 49.8602 78.7993 47.445 78.6666C45.1638 78.5388 43.0167 76.822 41.7266 75.4757C42.4102 74.8981 43.3606 74.1976 44.45 73.6704C44.5847 73.6122 44.7174 73.5511 44.8486 73.4893C45.7709 73.0942 46.7768 72.8401 47.798 72.8962C49.6834 73.0015 51.5048 74.2628 52.8377 75.5452L53.2673 75.9755C53.3494 76.0611 53.4294 76.1461 53.5059 76.2303Z" fill="#2D9945"/>
<path d="M44.2379 38.4412C44.7103 38.4412 45.1743 38.2488 45.5084 37.9147C45.8425 37.5792 46.0348 37.1174 46.0348 36.6429C46.0348 36.1698 45.8425 35.7086 45.5084 35.3724C45.1743 35.0383 44.7103 34.846 44.2379 34.846C43.7655 34.846 43.3016 35.0383 42.9675 35.3724C42.6334 35.7065 42.441 36.1698 42.441 36.6429C42.441 37.1174 42.6327 37.5806 42.9675 37.9147C43.3016 38.2488 43.7655 38.4412 44.2379 38.4412Z" fill="#2D9945"/>
</svg>
