<svg width="96" height="90" viewBox="0 0 96 90" fill="none" xmlns="http://www.w3.org/2000/svg">
<path d="M93.6029 61.2H77.4029L75.6029 58.7999V36.3555C75.6034 25.5514 68.4378 16.0578 58.0475 13.0963L61.1336 2.29497C61.407 1.33917 60.8537 0.342644 59.8979 0.0692695C59.737 0.0233695 59.5703 -3.05176e-05 59.4029 -3.05176e-05H48.6029H37.8029C37.6355 -3.05176e-05 37.4688 0.0233695 37.3079 0.0692695C36.3521 0.342644 35.7988 1.33917 36.0722 2.29497L39.1583 13.0963C28.768 16.0578 21.6025 25.5514 21.6029 36.3555V37.4343V37.6251V58.7999L17.6429 64.08C17.3131 64.5212 17.035 64.9991 16.814 65.5038L10.8848 62.788C7.20427 61.1014 2.84647 62.5617 0.925419 66.1254C0.283269 67.3726 -0.0342056 68.7615 0.00291942 70.164C-0.00675558 73.0768 1.63979 75.7419 4.24912 77.0366L25.2378 87.5308C28.4884 89.1504 32.0697 89.9955 35.7014 90H93.6029C94.597 90 95.4029 89.194 95.4029 88.2V63C95.4029 62.0059 94.597 61.2 93.6029 61.2ZM48.6029 3.59997H57.0179L54.4464 12.6H48.6029H42.7594L40.1879 3.59997H48.6029ZM72.0029 86.4H35.7014C32.6284 86.3961 29.5981 85.6811 26.8474 84.3108L5.85989 73.8171C4.47299 73.1288 3.59774 71.7122 3.60292 70.164C3.57524 69.3582 3.74422 68.5581 4.09499 67.8323C5.11222 65.9353 7.43084 65.1586 9.38542 66.06L29.8539 75.4357C30.0888 75.5437 30.3444 75.5997 30.6029 75.6H50.4029V72H34.2029C32.2146 72 30.6029 70.3883 30.6029 68.4C30.6029 66.4116 32.2146 64.8 34.2029 64.8H48.0022C48.3284 64.8 48.6486 64.7111 48.9285 64.5432L49.0972 64.442C55.7696 60.4401 64.0237 60.1233 70.9834 63.6016L72.0029 64.1119V86.4ZM47.5069 61.2H34.2029C30.2213 61.2045 26.9975 64.4359 27.002 68.4175C27.0027 69.0482 27.0862 69.6762 27.2504 70.2852L20.0844 67.0025C20.1989 66.7314 20.3461 66.4753 20.5229 66.24L24.8429 60.48C25.0767 60.1683 25.2029 59.7894 25.2029 59.4V37.6251V37.4343V36.3555C25.2038 26.606 32.0416 18.1932 41.5849 16.2H48.6029H55.6209C65.1643 18.1932 72.002 26.606 72.0029 36.3555V59.4C72.0038 59.6731 72.067 59.9424 72.1876 60.1875C64.3021 56.4104 55.0566 56.7897 47.5069 61.2ZM91.8029 86.4H75.6029V64.8H91.8029V86.4Z" fill="#2D9945"/>
</svg>
