<svg width="85" height="87" viewBox="0 0 85 87" fill="none" xmlns="http://www.w3.org/2000/svg">
<path d="M22.9062 77.75H20.0938V80.5625H22.9062V77.75Z" fill="#2D9945"/>
<path d="M52.4375 60.875H28.5312V39.7812C28.5312 39.4083 28.3831 39.0506 28.1194 38.7868C27.8556 38.5231 27.498 38.375 27.125 38.375H1.8125C1.43954 38.375 1.08185 38.5231 0.818131 38.7868C0.554408 39.0506 0.40625 39.4083 0.40625 39.7812V84.7812C0.40625 85.1542 0.554408 85.5119 0.818131 85.7756C1.08185 86.0393 1.43954 86.1875 1.8125 86.1875H52.4375C52.8105 86.1875 53.1681 86.0393 53.4319 85.7756C53.6956 85.5119 53.8438 85.1542 53.8438 84.7812V62.2812C53.8438 61.9083 53.6956 61.5506 53.4319 61.2869C53.1681 61.0231 52.8105 60.875 52.4375 60.875ZM36.9688 63.6875H42.5938V69.3125H36.9688V63.6875ZM11.6562 41.1875H17.2812V46.8125H11.6562V41.1875ZM3.21875 41.1875H8.84375V48.2187C8.84375 48.5917 8.99191 48.9494 9.25563 49.2131C9.51935 49.4768 9.87704 49.625 10.25 49.625H18.6875C19.0605 49.625 19.4181 49.4768 19.6819 49.2131C19.9456 48.9494 20.0938 48.5917 20.0938 48.2187V41.1875H25.7188V60.875H3.21875V41.1875ZM11.6562 63.6875H17.2812V69.3125H11.6562V63.6875ZM3.21875 63.6875H8.84375V70.7187C8.84375 71.0917 8.99191 71.4494 9.25563 71.7131C9.51935 71.9768 9.87704 72.125 10.25 72.125H18.6875C19.0605 72.125 19.4181 71.9768 19.6819 71.7131C19.9456 71.4494 20.0938 71.0917 20.0938 70.7187V63.6875H25.7188V83.375H3.21875V63.6875ZM51.0312 83.375H28.5312V63.6875H34.1562V70.7187C34.1562 71.0917 34.3044 71.4494 34.5681 71.7131C34.8319 71.9768 35.1895 72.125 35.5625 72.125H44C44.373 72.125 44.7306 71.9768 44.9944 71.7131C45.2581 71.4494 45.4062 71.0917 45.4062 70.7187V63.6875H51.0312V83.375Z" fill="#2D9945"/>
<path d="M48.2188 77.75H45.4062V80.5625H48.2188V77.75Z" fill="#2D9945"/>
<path d="M22.9062 55.25H20.0938V58.0625H22.9062V55.25Z" fill="#2D9945"/>
<path d="M83.045 18.6481C83.153 18.6743 83.2638 18.6875 83.3749 18.6875C83.6214 18.6873 83.8634 18.6225 84.0771 18.4997C84.2907 18.3768 84.4684 18.2001 84.5924 17.9872C84.7201 17.7623 84.7853 17.5074 84.7812 17.2489V11.6562C84.7812 11.3407 84.675 11.0343 84.4798 10.7864C84.2846 10.5384 84.0116 10.3634 83.7049 10.2893L42.9236 0.445595C42.7068 0.393033 42.4806 0.393033 42.2638 0.445595L1.48251 10.2893C1.17576 10.3634 0.902828 10.5384 0.707608 10.7864C0.512388 11.0343 0.406228 11.3407 0.406201 11.6562V17.2413C0.401394 17.5358 0.485573 17.8248 0.647724 18.0707C0.808634 18.3073 1.0378 18.4893 1.30472 18.5924C1.57164 18.6956 1.86364 18.715 2.14187 18.6481L4.62495 18.0489V35.5625H7.43745V17.37L42.5937 8.88398L77.7499 17.37V83.375H69.3124V28.5312C69.3124 28.1583 69.1643 27.8006 68.9006 27.5369C68.6368 27.2731 68.2792 27.125 67.9062 27.125H17.2812C16.9082 27.125 16.5506 27.2731 16.2868 27.5369C16.0231 27.8006 15.875 28.1583 15.875 28.5312V34.1562C15.875 34.5292 16.0231 34.8869 16.2868 35.1506C16.5506 35.4143 16.9082 35.5625 17.2812 35.5625H66.4999V38.375H31.3437V41.1875H66.4999V44H31.3437V46.8125H66.4999V49.625H31.3437V52.4375H66.4999V83.375H56.6562V86.1875H84.7812V83.375H80.5624V18.0489L83.045 18.6481ZM18.6875 32.75V29.9375H66.4999V32.75H18.6875ZM42.5937 6.03122C42.4825 6.03117 42.3718 6.04438 42.2638 6.0706L3.2187 15.4951V12.7636L42.5937 3.25915L81.9687 12.7636V15.4953L42.9236 6.0706C42.8156 6.04438 42.7049 6.03117 42.5937 6.03122Z" fill="#2D9945"/>
<path d="M45.4062 22.9062C46.5251 22.9062 47.5982 22.4617 48.3894 21.6706C49.1805 20.8794 49.625 19.8064 49.625 18.6875C49.625 17.5686 49.1805 16.4955 48.3894 15.7044C47.5982 14.9132 46.5251 14.4687 45.4062 14.4687H39.7812C38.6624 14.4687 37.5893 14.9132 36.7981 15.7044C36.007 16.4955 35.5625 17.5686 35.5625 18.6875C35.5625 19.8064 36.007 20.8794 36.7981 21.6706C37.5893 22.4617 38.6624 22.9062 39.7812 22.9062H45.4062ZM38.375 18.6875C38.3754 18.3146 38.5237 17.9572 38.7873 17.6936C39.051 17.4299 39.4084 17.2816 39.7812 17.2812H45.4062C45.7792 17.2812 46.1369 17.4294 46.4006 17.6931C46.6643 17.9568 46.8125 18.3145 46.8125 18.6875C46.8125 19.0604 46.6643 19.4181 46.4006 19.6818C46.1369 19.9456 45.7792 20.0937 45.4062 20.0937H39.7812C39.4084 20.0933 39.051 19.945 38.7873 19.6814C38.5237 19.4177 38.3754 19.0603 38.375 18.6875Z" fill="#2D9945"/>
</svg>
