<svg width="34" height="35" viewBox="0 0 34 35" fill="none" xmlns="http://www.w3.org/2000/svg">
<path d="M9 30.9375H7.875V32.0625H9V30.9375Z" fill="white"/>
<path d="M20.8125 24.1875H11.25V15.75C11.25 15.6008 11.1907 15.4577 11.0852 15.3523C10.9798 15.2468 10.8367 15.1875 10.6875 15.1875H0.5625C0.413316 15.1875 0.270242 15.2468 0.164752 15.3523C0.0592632 15.4577 0 15.6008 0 15.75V33.75C0 33.8992 0.0592632 34.0423 0.164752 34.1477C0.270242 34.2532 0.413316 34.3125 0.5625 34.3125H20.8125C20.9617 34.3125 21.1048 34.2532 21.2102 34.1477C21.3157 34.0423 21.375 33.8992 21.375 33.75V24.75C21.375 24.6008 21.3157 24.4577 21.2102 24.3523C21.1048 24.2468 20.9617 24.1875 20.8125 24.1875ZM14.625 25.3125H16.875V27.5625H14.625V25.3125ZM4.5 16.3125H6.75V18.5625H4.5V16.3125ZM1.125 16.3125H3.375V19.125C3.375 19.2742 3.43426 19.4173 3.53975 19.5227C3.64524 19.6282 3.78832 19.6875 3.9375 19.6875H7.3125C7.46168 19.6875 7.60476 19.6282 7.71025 19.5227C7.81574 19.4173 7.875 19.2742 7.875 19.125V16.3125H10.125V24.1875H1.125V16.3125ZM4.5 25.3125H6.75V27.5625H4.5V25.3125ZM1.125 25.3125H3.375V28.125C3.375 28.2742 3.43426 28.4173 3.53975 28.5227C3.64524 28.6282 3.78832 28.6875 3.9375 28.6875H7.3125C7.46168 28.6875 7.60476 28.6282 7.71025 28.5227C7.81574 28.4173 7.875 28.2742 7.875 28.125V25.3125H10.125V33.1875H1.125V25.3125ZM20.25 33.1875H11.25V25.3125H13.5V28.125C13.5 28.2742 13.5593 28.4173 13.6648 28.5227C13.7702 28.6282 13.9133 28.6875 14.0625 28.6875H17.4375C17.5867 28.6875 17.7298 28.6282 17.8352 28.5227C17.9407 28.4173 18 28.2742 18 28.125V25.3125H20.25V33.1875Z" fill="white"/>
<path d="M19.125 30.9375H18V32.0625H19.125V30.9375Z" fill="white"/>
<path d="M9 21.9375H7.875V23.0625H9V21.9375Z" fill="white"/>
<path d="M33.0556 7.29677C33.0988 7.30726 33.1431 7.31254 33.1876 7.31252C33.2862 7.31244 33.383 7.28654 33.4684 7.23739C33.5539 7.18824 33.6249 7.11756 33.6746 7.03239C33.7257 6.94247 33.7517 6.8405 33.7501 6.73708V4.50002C33.7501 4.3738 33.7076 4.25125 33.6295 4.15208C33.5514 4.05291 33.4423 3.98288 33.3196 3.95327L17.0071 0.0157686C16.9203 -0.00525619 16.8298 -0.00525619 16.7431 0.0157686L0.430601 3.95327C0.307902 3.98288 0.198729 4.05291 0.120641 4.15208C0.042553 4.25125 8.88167e-05 4.3738 7.79668e-05 4.50002V6.73406C-0.00184455 6.85184 0.0318268 6.96746 0.0966873 7.06579C0.161051 7.16044 0.252718 7.23325 0.359485 7.27451C0.466252 7.31577 0.583055 7.32354 0.694344 7.29677L1.68758 7.05707V14.0625H2.81258V6.78553L16.8751 3.39112L30.9376 6.78553V33.1875H27.5626V11.25C27.5626 11.1008 27.5033 10.9578 27.3978 10.8523C27.2923 10.7468 27.1493 10.6875 27.0001 10.6875H6.75008C6.60089 10.6875 6.45782 10.7468 6.35233 10.8523C6.24684 10.9578 6.18758 11.1008 6.18758 11.25V13.5C6.18758 13.6492 6.24684 13.7923 6.35233 13.8978C6.45782 14.0033 6.60089 14.0625 6.75008 14.0625H26.4376V15.1875H12.3751V16.3125H26.4376V17.4375H12.3751V18.5625H26.4376V19.6875H12.3751V20.8125H26.4376V33.1875H22.5001V34.3125H33.7501V33.1875H32.0626V7.05707L33.0556 7.29677ZM7.31258 12.9375V11.8125H26.4376V12.9375H7.31258ZM16.8751 2.25002C16.8306 2.25 16.7863 2.25528 16.7431 2.26577L1.12508 6.03557V4.94299L16.8751 1.14119L32.6251 4.94299V6.03564L17.0071 2.26577C16.9638 2.25528 16.9195 2.25 16.8751 2.25002Z" fill="white"/>
<path d="M18.0001 9C18.4477 9 18.8769 8.82221 19.1934 8.50574C19.5098 8.18928 19.6876 7.76005 19.6876 7.3125C19.6876 6.86495 19.5098 6.43572 19.1934 6.11926C18.8769 5.80279 18.4477 5.625 18.0001 5.625H15.7501C15.3026 5.625 14.8733 5.80279 14.5569 6.11926C14.2404 6.43572 14.0626 6.86495 14.0626 7.3125C14.0626 7.76005 14.2404 8.18928 14.5569 8.50574C14.8733 8.82221 15.3026 9 15.7501 9H18.0001ZM15.1876 7.3125C15.1878 7.16337 15.2471 7.02039 15.3526 6.91494C15.458 6.80948 15.601 6.75017 15.7501 6.75H18.0001C18.1493 6.75 18.2924 6.80926 18.3979 6.91475C18.5034 7.02024 18.5626 7.16332 18.5626 7.3125C18.5626 7.46168 18.5034 7.60476 18.3979 7.71025C18.2924 7.81574 18.1493 7.875 18.0001 7.875H15.7501C15.601 7.87483 15.458 7.81552 15.3526 7.71006C15.2471 7.60461 15.1878 7.46163 15.1876 7.3125Z" fill="white"/>
</svg>
