<svg width="100" height="59" viewBox="0 0 100 59" fill="none" xmlns="http://www.w3.org/2000/svg">
<path d="M97.9956 10.2241H86.0806C84.9738 10.2241 84.0765 11.1212 84.0765 12.2281V13.9583H78.4889C77.3821 13.9583 76.4848 14.8554 76.4848 15.9624V16.5391C73.2275 16.2547 72.1563 15.6371 69.165 13.9121C66.8645 12.5854 63.3872 10.5805 57.1255 7.76516C57.0964 7.75189 57.0672 7.73965 57.0372 7.72811C54.9991 6.92611 49.657 5.34813 43.9515 7.93391L36.1725 10.7193L27.0975 1.64407C24.9054 -0.548025 21.3354 -0.548025 19.1433 1.64407L17.5526 3.2348L12.78 8.00733L1.64407 19.1433C-0.548025 21.3354 -0.548025 24.9053 1.64407 27.0974L31.87 57.3234C34.0621 59.5155 37.632 59.5155 39.8241 57.3234L50.9572 46.1903C50.9582 46.1893 50.9592 46.1886 50.9603 46.1876L54.8665 42.2813C55.4963 42.8317 56.2816 43.4529 57.1282 43.9703C57.8179 44.3917 58.3989 44.7904 59.059 45.1593C59.5568 45.4181 60.0896 45.6632 60.6625 45.8839L60.6503 45.8961C61.7369 46.301 63.1561 46.6516 65.2813 46.9336C65.811 46.9792 66.3606 47.0039 66.9305 47.0039C72.1661 47.0039 76.7973 43.4124 79.4467 39.4979H97.9959C99.1027 39.4979 100 38.6007 100 37.4938V12.2281C99.9997 11.1212 99.1023 10.2241 97.9956 10.2241ZM20.734 3.23497C22.0497 1.91934 24.1909 1.91934 25.5065 3.23497L44.3966 22.0757C43.2195 21.8259 39.8864 19.7488 36.8485 20.9402L19.9387 4.03025L20.734 3.23497ZM18.3478 5.62115L35.0232 22.2965C34.8284 22.4906 34.6431 22.6934 34.4702 22.9063C33.7658 23.8619 33.2146 25.0837 32.9721 26.6088L15.1662 8.80278L18.3478 5.62115ZM38.2334 55.7325C36.9178 57.0481 34.7767 57.0483 33.4611 55.7325L3.23497 25.5065C1.91934 24.1909 1.91934 22.0497 3.23497 20.734L13.5753 10.3937L32.9338 29.7522C33.6019 32.4389 35.6962 34.7632 38.7607 35.9003C38.7782 35.9067 38.796 35.9131 38.8138 35.9191L39.2485 36.0666L48.5737 45.3919L38.2334 55.7325ZM50.1646 43.8012L44.0649 37.7017C44.9643 38.0069 45.8242 38.2987 46.6317 38.5728L49.7175 39.6201C50.1407 39.7636 50.533 39.8969 50.8924 40.0187L51.785 40.3217C51.8893 40.3571 51.9893 40.391 52.0842 40.4233L52.2335 40.4739C52.6591 40.6184 52.9776 40.7265 53.1731 40.7928L50.1646 43.8012ZM84.0765 36.87H78.8116V16.3014H84.0765V36.87ZM97.6564 37.0398H86.7976V12.7968H97.6564V37.0398ZM76.4273 39.5416C71.5246 46.4053 64.7497 46.2207 60.0098 43.7214C58.1105 42.72 56.1585 40.5448 54.5947 39.1107L39.513 34.342C35.8571 32.9719 34.6295 29.7011 35.1752 26.7293C35.1755 26.7279 36.0756 21.828 41.7537 23.8565L58.7026 28.7688C59.7578 29.1037 61.3454 29.7011 61.6521 28.6501C62.0454 27.3019 60.4121 26.8851 60.1401 26.7825L49.1077 23.598L37.9042 12.5668C37.9042 12.5668 49.8546 6.47676 56.1746 9.63667C62.2231 12.3583 64.7322 14.4242 67.0908 15.7843C70.3701 17.6755 72.0219 18.4454 76.4845 18.8141L76.4273 39.5416Z" fill="#2D9945"/>
</svg>
