<svg width="228" height="145" viewBox="0 0 228 145" fill="none" xmlns="http://www.w3.org/2000/svg">
<path d="M45.4571 0C45.4571 0 13.5059 9.50592 3.60872 37.2262L0.012623 36.3968C0.012623 36.3968 -0.59203 53.8137 6.56834 72.1876C6.56834 72.2195 2.52671 19.7455 45.4571 0Z" fill="#B72026"/>
<path d="M45.4583 41.7877V52.3782L51.0274 55.8233V46.2854L45.4583 41.7877Z" fill="#0E76BC"/>
<path d="M53.3188 0.605957C53.3188 0.605957 61.9112 18.916 67.7668 27.0503L64.298 27.5607C64.298 27.5607 65.5391 36.9709 73.9088 49.1563C81.8966 60.7676 92.1121 67.5302 92.1121 67.5302C92.1121 67.5302 71.4266 58.8536 60.2564 38.8529C49.0862 18.8522 53.3188 0.605957 53.3188 0.605957Z" fill="#20409A"/>
<path d="M19.5536 57.1631V46.2855C19.5536 44.3397 19.8082 44.244 20.922 44.2759C22.0358 44.3397 25.8865 45.7432 35.7519 50.7195C45.6173 55.6957 55.8964 62.3307 67.4167 65.2654C78.9369 68.2002 86.6065 68.9019 86.6065 68.9019C86.6065 68.9019 76.8684 70.0184 66.2392 67.5303C56.2783 65.2016 52.0776 60.2892 39.2844 56.3337C26.523 52.4101 19.5536 57.1631 19.5536 57.1631Z" fill="#0E76BC"/>
<path d="M64.2345 81.2788C52.5551 80.8003 52.3005 77.4509 37.0251 75.5369C21.7496 73.623 12.1388 81.2788 12.1388 81.2788C18.2172 80.7365 27.1278 85.298 27.1278 85.298H37.3433V89.9553C48.0361 95.4101 54.9419 94.1979 54.9419 94.1979C56.1194 92.0925 58.0925 89.0621 61.8158 87.212C66.1757 85.0748 71.2994 85.3619 71.2994 85.3619V90.3381C82.0876 86.3826 88.5479 72.7617 88.5479 72.7617C83.8061 74.9309 73.718 81.6616 64.2345 81.2788Z" fill="url(#paint0_linear)"/>
<path d="M75.15 78.4398C75.15 78.4398 66.1757 78.8864 62.0704 77.419C55.101 74.899 43.2625 68.4873 37.8843 67.5303V73.3041C37.8843 73.3041 44.5355 74.5481 53.0961 77.0363C61.6567 79.5563 66.2712 80.896 75.15 78.4398Z" fill="#1E419A"/>
<path d="M95.4853 86.7336C86.8611 86.7336 79.8916 93.7194 79.8916 102.364C79.8916 102.906 79.9235 103.417 79.9553 103.927L79.828 103.704C79.828 103.704 80.3054 105.426 77.7276 108.68C75.1499 111.966 71.4583 112.986 67.5122 112.317C63.566 111.647 60.3518 107.596 59.9381 104.725C59.5244 101.854 59.6517 98.3129 62.3249 95.2187C64.9981 92.1245 69.6762 92.2202 69.6762 92.2202V86.7336C69.6762 86.7336 63.9479 86.7336 59.3016 90.6252C54.6553 94.5169 54.178 101.503 54.178 101.503C54.178 101.503 54.528 105.745 51.7912 109.031C48.6406 112.795 43.1987 112.54 43.1987 112.54H28.9417C28.9417 112.54 21.2403 113.018 14.3345 106.734C7.46055 100.45 8.1925 92.0288 8.1925 92.0288H35.8792V86.7017H9.14721C9.14721 86.7017 9.81551 83.2247 13.3161 78.7588C18.0897 73.9739 24.2954 72.2195 26.5549 72.2195H35.9111V66.7966C35.9111 66.7966 30.9784 66.4458 25.9502 67.0518C22.9588 67.4027 19.84 68.3916 17.8988 69.1891C12.7115 71.2944 3.32344 77.9613 2.68697 92.284C2.30508 101.12 7.61967 107.5 11.2794 111.264C14.971 115.028 23.1497 117.835 25.8866 117.835H44.4399C45.3309 117.835 48.6088 117.867 52.0139 115.762C55.7055 113.497 57.0421 110.977 57.0421 110.977C60.7655 116.719 64.839 117.676 69.6762 117.835C75.7545 118.027 79.0324 115.188 81.0373 113.146C81.8011 112.349 82.3103 111.711 82.6285 111.232C85.429 115.347 90.1389 118.027 95.4853 118.027C104.11 118.027 111.079 111.041 111.079 102.396C111.079 93.7194 104.11 86.7336 95.4853 86.7336ZM95.549 112.572C89.9162 112.572 85.3335 107.978 85.3335 102.332C85.3335 96.6861 89.9162 92.0926 95.549 92.0926C101.182 92.0926 105.764 96.6861 105.764 102.332C105.764 108.01 101.182 112.572 95.549 112.572Z" fill="#1E419A"/>
<path d="M60.7338 139.048H54.5281C54.5281 139.654 54.7827 140.196 55.2919 140.707C55.8011 141.185 56.4057 141.44 57.1058 141.44C57.615 141.44 58.0924 141.313 58.5697 141.026C59.0471 140.739 59.3653 140.388 59.5563 139.941H60.5428C60.2882 140.643 59.8745 141.217 59.238 141.664C58.6016 142.11 57.9333 142.334 57.2013 142.334C56.2148 142.334 55.3555 141.983 54.6554 141.313C53.9553 140.643 53.6052 139.782 53.6052 138.761C53.6052 137.772 53.9553 136.911 54.6236 136.209C55.3237 135.507 56.1511 135.156 57.1695 135.156C57.6787 135.156 58.156 135.252 58.6334 135.475C59.0789 135.699 59.4926 135.986 59.8109 136.368C60.1609 136.751 60.3837 137.166 60.511 137.612C60.6701 138.027 60.7338 138.506 60.7338 139.048ZM59.8109 138.219C59.6836 137.612 59.3972 137.07 58.888 136.655C58.3788 136.241 57.806 136.018 57.2013 136.018C56.533 136.018 55.9602 136.209 55.4828 136.624C55.0055 137.038 54.6872 137.549 54.5599 138.187H59.8109V138.219Z" fill="black"/>
<path d="M73.9406 140.132C73.6542 140.802 73.2087 141.345 72.604 141.727C71.9994 142.11 71.3629 142.302 70.6309 142.302C69.5808 142.302 68.6897 141.951 67.9577 141.249C67.2258 140.547 66.8757 139.686 66.8757 138.665C66.8757 137.676 67.2258 136.815 67.9577 136.113C68.6897 135.411 69.5489 135.061 70.5673 135.061C71.3311 135.061 71.9994 135.252 72.604 135.667C73.2087 136.049 73.6542 136.624 73.9406 137.293H72.9223C72.6995 136.879 72.3494 136.56 71.9039 136.305C71.4584 136.081 71.0128 135.954 70.5991 135.954C69.8354 135.954 69.1671 136.209 68.626 136.719C68.085 137.23 67.7986 137.868 67.7986 138.633C67.7986 139.367 68.0532 140.005 68.5942 140.547C69.1034 141.089 69.7717 141.345 70.5355 141.345C71.0447 141.345 71.4902 141.249 71.8403 141.058C72.2221 140.866 72.5722 140.547 72.9223 140.069H73.9406V140.132Z" fill="black"/>
<path d="M87.2749 138.697C87.2749 139.654 86.9248 140.515 86.2565 141.249C85.5564 141.983 84.729 142.334 83.7425 142.334C82.7877 142.334 81.9285 141.983 81.2284 141.281C80.4964 140.579 80.1464 139.75 80.1464 138.761C80.1464 137.74 80.4964 136.879 81.1965 136.177C81.8967 135.475 82.7559 135.124 83.7425 135.124C84.6653 135.124 85.4928 135.475 86.2247 136.177C86.893 136.911 87.2749 137.74 87.2749 138.697ZM86.3202 138.665C86.3202 137.932 86.0656 137.325 85.5246 136.815C85.0154 136.305 84.3789 136.05 83.647 136.05C82.8832 136.05 82.2786 136.305 81.7694 136.847C81.2602 137.389 81.0056 138.027 81.0056 138.761C81.0056 139.495 81.2602 140.133 81.8012 140.643C82.3104 141.153 82.9469 141.409 83.6788 141.409C84.4108 141.409 85.0472 141.153 85.5564 140.611C86.0974 140.101 86.3202 139.431 86.3202 138.665Z" fill="black"/>
<path d="M97.3631 140.101C97.3631 140.739 97.1722 141.249 96.7585 141.664C96.3448 142.078 95.8038 142.302 95.1673 142.302C94.6263 142.302 94.1489 142.11 93.7034 141.696C93.2897 141.281 93.0669 140.802 93.0669 140.196V140.101H94.0216C94.0216 140.483 94.1489 140.771 94.3717 141.026C94.6263 141.281 94.9127 141.409 95.2627 141.409C95.6128 141.409 95.8992 141.313 96.122 141.09C96.3448 140.866 96.4721 140.611 96.4721 140.26C96.4721 140.037 96.4402 139.846 96.3448 139.686C96.1856 139.431 95.931 139.239 95.581 139.112C95.2309 138.984 94.9445 138.889 94.6899 138.793C94.4353 138.697 94.2762 138.633 94.1807 138.57C93.9261 138.41 93.7352 138.187 93.6079 137.995C93.4488 137.74 93.3533 137.421 93.3533 137.07C93.3533 136.528 93.5443 136.081 93.9261 135.699C94.308 135.316 94.7854 135.124 95.3264 135.124C95.8356 135.124 96.2811 135.316 96.663 135.667C97.0449 136.05 97.2358 136.464 97.2358 136.975H96.3129C96.3129 136.688 96.2175 136.464 96.0265 136.273C95.8356 136.081 95.581 136.018 95.2627 136.018C95.0081 136.018 94.7536 136.113 94.5626 136.273C94.3717 136.432 94.2762 136.688 94.2762 136.975C94.2762 137.166 94.3399 137.357 94.4353 137.517C94.5626 137.676 94.6899 137.804 94.8809 137.9C95.3582 138.091 95.8356 138.282 96.3448 138.442C96.6948 138.601 96.9812 138.857 97.1404 139.144C97.2677 139.431 97.3631 139.75 97.3631 140.101Z" fill="black"/>
<path d="M110.729 138.729C110.729 139.718 110.379 140.547 109.647 141.249C108.915 141.951 108.056 142.302 107.038 142.302C106.528 142.302 106.083 142.206 105.637 142.015C105.064 141.759 104.683 141.377 104.428 140.834V144.535H103.505V135.252H104.364V136.464C104.619 136.049 104.969 135.73 105.415 135.507C105.924 135.252 106.465 135.092 107.101 135.092C107.61 135.092 108.088 135.188 108.501 135.38C108.756 135.507 109.106 135.73 109.52 136.049C109.934 136.368 110.252 136.815 110.475 137.325C110.666 137.772 110.729 138.219 110.729 138.729ZM109.806 138.729C109.806 137.963 109.552 137.325 109.011 136.815C108.47 136.305 107.833 136.049 107.101 136.049C106.337 136.049 105.701 136.305 105.192 136.815C104.651 137.325 104.396 137.963 104.396 138.729C104.396 139.495 104.651 140.164 105.16 140.675C105.669 141.185 106.306 141.472 107.101 141.472C107.833 141.472 108.47 141.217 109.011 140.707C109.552 140.133 109.806 139.495 109.806 138.729Z" fill="black"/>
<path d="M123.936 139.048H117.73C117.73 139.654 117.985 140.196 118.494 140.707C119.003 141.217 119.608 141.44 120.308 141.44C120.817 141.44 121.295 141.313 121.772 141.026C122.249 140.739 122.567 140.388 122.758 139.941H123.745C123.49 140.643 123.077 141.217 122.44 141.664C121.836 142.11 121.135 142.334 120.403 142.334C119.417 142.334 118.558 141.983 117.858 141.313C117.157 140.611 116.807 139.782 116.807 138.761C116.807 137.772 117.157 136.911 117.826 136.209C118.526 135.507 119.353 135.156 120.372 135.156C120.881 135.156 121.358 135.252 121.836 135.475C122.281 135.699 122.695 135.986 123.013 136.368C123.363 136.751 123.586 137.166 123.713 137.612C123.84 138.059 123.936 138.506 123.936 139.048ZM123.013 138.219C122.886 137.612 122.599 137.07 122.09 136.655C121.581 136.241 121.008 136.018 120.403 136.018C119.735 136.018 119.162 136.209 118.685 136.624C118.208 137.038 117.889 137.549 117.762 138.187H123.013V138.219Z" fill="black"/>
<path d="M135.424 142.142H134.342L132.528 139.399L130.714 142.142H129.601L131.956 138.665L129.601 135.284H130.683L132.465 137.931L134.279 135.284H135.361L133.006 138.665L135.424 142.142Z" fill="black"/>
<path d="M142.808 142.142H141.885V140.579H142.808V142.142Z" fill="black"/>
<path d="M151.113 142.142H150.191V132.859H151.113V142.142Z" fill="black"/>
<path d="M159.006 142.142H158.083V132.859H159.006V142.142Z" fill="black"/>
<path d="M172.595 140.132C172.308 140.802 171.863 141.345 171.258 141.727C170.653 142.11 170.017 142.302 169.285 142.302C168.235 142.302 167.344 141.951 166.612 141.249C165.88 140.547 165.53 139.686 165.53 138.665C165.53 137.676 165.88 136.815 166.612 136.113C167.344 135.411 168.203 135.061 169.221 135.061C169.985 135.061 170.653 135.252 171.258 135.667C171.863 136.049 172.308 136.624 172.595 137.293H171.576C171.354 136.879 171.004 136.56 170.558 136.305C170.112 136.081 169.667 135.954 169.253 135.954C168.489 135.954 167.821 136.209 167.28 136.719C166.739 137.23 166.453 137.868 166.453 138.633C166.453 139.367 166.707 140.005 167.248 140.547C167.757 141.089 168.426 141.345 169.19 141.345C169.699 141.345 170.144 141.249 170.494 141.058C170.844 140.866 171.226 140.547 171.576 140.069H172.595V140.132Z" fill="black"/>
<path d="M10.5476 67.8174C10.5476 67.8174 12.8707 61.8842 17.6443 58.9176C17.6443 58.9176 16.7533 47.0831 16.7533 44.6268C16.7533 42.1706 17.5807 41.086 20.4448 41.2774C23.309 41.4688 32.7925 45.5838 32.7925 45.5838V40.7989L45.1402 39.6506L52.4278 45.52V56.8123L56.7877 59.2047V55.2492L64.4891 54.7707V62.5541C64.4891 62.5541 82.9787 68.2959 88.166 68.4873C88.166 68.4873 67.8306 59.6513 57.0105 40.8946C46.3495 22.457 48.5135 3.79604 49.3409 0.765625C49.3409 0.765625 29.6419 9.09128 19.5538 28.8368C9.43377 47.5615 10.5476 67.8174 10.5476 67.8174Z" fill="#0E76BC"/>
<path d="M218.548 101.662L227.682 87.6268H221.953L215.716 97.1965L209.606 87.6268H203.877L212.82 101.662L203.146 116.464H208.874L215.652 106.096L222.272 116.464H228L218.548 101.662Z" fill="#2F9947"/>
<path d="M187.456 87.3077C179.246 87.3077 172.595 93.9746 172.595 102.205C172.595 110.435 179.246 117.101 187.456 117.101C193.821 117.101 199.263 113.082 201.363 107.436H195.731C194.012 110.147 190.989 111.934 187.52 111.934C182.874 111.934 178.991 108.648 178.036 104.278H202.318V102.205C202.318 93.9746 195.667 87.3077 187.456 87.3077ZM178.164 99.5889C179.309 95.4739 183.065 92.4435 187.52 92.4435C191.975 92.4435 195.762 95.4739 196.876 99.5889H178.164Z" fill="#2F9947"/>
<path d="M127.978 99.1103C123.745 97.9939 123.331 95.5057 123.363 94.8677C123.427 94.1979 124.031 91.5821 126.832 91.6459C129.632 91.7097 130.269 94.8677 130.269 94.8677H135.17C135.011 93.1133 134.056 89.7958 132.306 88.5198C130.555 87.2439 127.341 86.255 124.382 87.0206C121.422 87.7861 118.24 91.7416 118.558 95.8885C118.844 99.8759 120.849 101.343 122.854 102.205C125.209 103.225 127.309 103.927 129.187 105.331C130.714 106.447 130.714 108.552 130.46 109.828C130.205 111.104 128.614 112.38 126.864 112.604C125.113 112.795 124 111.774 122.981 110.722C121.963 109.637 121.899 107.021 121.899 107.021H117.189C117.189 107.021 116.68 108.552 118.017 111.583C119.353 114.613 122.504 117.165 126.005 117.325C129.473 117.484 132.974 115.028 134.406 112.827C135.838 110.626 135.934 107.659 135.361 105.745C134.533 102.779 132.242 100.227 127.978 99.1103Z" fill="#2F9947"/>
<path d="M154.741 87.3077C151.05 87.3077 147.677 88.6475 145.099 90.8804V87.3077H139.911V102.205V125.714H145.099V113.497C147.708 115.73 151.082 117.07 154.741 117.07C162.952 117.07 169.603 110.403 169.603 102.173C169.603 93.9746 162.952 87.3077 154.741 87.3077ZM154.805 111.934C149.427 111.934 145.099 107.564 145.099 102.205C145.099 96.8137 149.459 92.4754 154.805 92.4754C160.183 92.4754 164.511 96.8456 164.511 102.205C164.511 107.564 160.183 111.934 154.805 111.934Z" fill="#2F9947"/>
<path d="M33.3653 59.6831C18.6308 59.8745 9.87927 73.3359 9.87927 73.3359C20.4448 63.4153 32.506 63.83 41.5122 66.5733C50.5183 69.3166 58.0924 76.6853 70.09 77.7699C82.0876 78.8544 88.5797 72.7936 88.5797 72.7936C80.5282 74.4204 74.7045 74.0696 64.7754 70.0503C55.9602 66.4776 48.6089 59.6512 34.0336 59.6512C33.8108 59.6831 33.588 59.6831 33.3653 59.6831Z" fill="url(#paint1_linear)"/>
<defs>
<linearGradient id="paint0_linear" x1="12.1314" y1="83.555" x2="88.5768" y2="83.555" gradientUnits="userSpaceOnUse">
<stop stop-color="#95C73D"/>
<stop offset="1" stop-color="#2E9A44"/>
</linearGradient>
<linearGradient id="paint1_linear" x1="9.88083" y1="68.7945" x2="88.5768" y2="68.7945" gradientUnits="userSpaceOnUse">
<stop stop-color="#2E9A44"/>
<stop offset="0.00558659" stop-color="#2E9A44"/>
<stop offset="1" stop-color="#95C73D"/>
</linearGradient>
</defs>
</svg>
