<svg width="44" height="42" viewBox="0 0 44 42" fill="none" xmlns="http://www.w3.org/2000/svg">
<path d="M38.1888 38.1875C39.1058 38.1875 39.8492 37.4441 39.8492 36.5271C39.8492 35.6102 39.1058 34.8668 38.1888 34.8668C37.2719 34.8668 36.5285 35.6102 36.5285 36.5271C36.5285 37.4441 37.2719 38.1875 38.1888 38.1875Z" fill="white"/>
<path d="M43.1698 28.2256H35.6984L34.8682 27.1186V16.7672C34.8684 11.7844 31.5636 7.40589 26.7716 6.04006L28.1949 1.05846C28.321 0.617642 28.0658 0.158042 27.625 0.0319613C27.5508 0.0107921 27.4739 0 27.3967 0H22.4158H17.4348C17.3576 0 17.2807 0.0107921 17.2065 0.0319613C16.7657 0.158042 16.5105 0.617642 16.6366 1.05846L18.0599 6.04006C13.2679 7.40589 9.9631 11.7844 9.96331 16.7672V17.2648V17.3528V27.1186L8.13695 29.5538C7.98482 29.7573 7.85656 29.9777 7.75466 30.2105L5.0201 28.958C3.32262 28.1801 1.3128 28.8536 0.426805 30.4972C0.130644 31.0724 -0.0157757 31.713 0.00134644 32.3598C-0.00311569 33.7032 0.756276 34.9323 1.9597 35.5294L11.6397 40.3694C13.1389 41.1163 14.7906 41.5061 16.4656 41.5082H43.1698C43.6283 41.5082 44 41.1365 44 40.678V29.0557C44 28.5973 43.6283 28.2256 43.1698 28.2256ZM22.4158 1.66033H26.2968L25.1108 5.81114H22.4158H19.7207L18.5347 1.66033H22.4158ZM33.2079 39.8478H16.4656C15.0483 39.8461 13.6507 39.5163 12.3821 38.8843L2.70259 34.0446C2.06295 33.7271 1.65929 33.0738 1.66167 32.3598C1.64891 31.9882 1.72684 31.6192 1.88862 31.2844C2.35776 30.4095 3.42712 30.0513 4.32857 30.467L13.7687 34.7911C13.877 34.8409 13.9949 34.8668 14.1141 34.8669H23.2459V33.2065H15.7744C14.8574 33.2065 14.1141 32.4632 14.1141 31.5462C14.1141 30.6292 14.8574 29.8859 15.7744 29.8859H22.1387C22.2892 29.8859 22.4368 29.8449 22.5659 29.7675L22.6437 29.7208C25.7211 27.8751 29.5279 27.729 32.7377 29.3332L33.2079 29.5686V39.8478ZM21.9103 28.2256H15.7744C13.9381 28.2276 12.4513 29.718 12.4534 31.5543C12.4537 31.8452 12.4922 32.1348 12.5679 32.4157L9.26296 30.9017C9.31578 30.7766 9.38364 30.6586 9.46521 30.55L11.4576 27.8935C11.5654 27.7498 11.6236 27.575 11.6236 27.3954V17.3528V17.2648V16.7672C11.624 12.2707 14.7776 8.39077 19.1791 7.47147H22.4158H25.6525C30.0539 8.39077 33.2075 12.2707 33.2079 16.7672V27.3954C33.2083 27.5214 33.2375 27.6456 33.2931 27.7586C29.6562 26.0166 25.3922 26.1915 21.9103 28.2256ZM42.3397 39.8478H34.8682V29.8859H42.3397V39.8478Z" fill="white"/>
<path d="M26.4522 22.0499C26.8747 21.5503 27.5328 20.5835 27.4707 19.4643C27.3919 18.0504 26.1306 16.992 25.799 16.738C25.7541 16.6973 25.7015 16.6643 25.6433 16.6409C25.4791 16.5746 25.2941 16.5964 25.1503 16.6946C24.8439 15.5531 23.8539 14.7251 23.5656 14.5048C23.5207 14.4641 23.4681 14.4309 23.4098 14.4074C23.2459 14.3417 23.0617 14.3633 22.9179 14.461C22.6112 13.3202 21.6221 12.4933 21.3341 12.273C21.2889 12.2323 21.2363 12.1993 21.178 12.1756C20.9924 12.1011 20.7805 12.1385 20.6315 12.2719C20.5701 12.3267 19.13 13.6351 19.2185 15.22C19.2259 15.3534 19.2445 15.4838 19.2721 15.6105C19.1452 15.5833 19.015 15.5646 18.8814 15.5569C17.2973 15.468 15.9883 16.9085 15.9333 16.9699C15.7999 17.1191 15.763 17.331 15.8377 17.5166C15.859 17.57 15.8888 17.6185 15.9247 17.6609C16.1268 17.9322 16.9503 18.9475 18.1215 19.2578C18.0246 19.4011 18.0037 19.5846 18.0691 19.7482C18.0907 19.8016 18.1203 19.8501 18.1564 19.8925C18.3585 20.164 19.1828 21.1805 20.3551 21.49C20.2557 21.6364 20.2358 21.8247 20.306 21.9907C20.3288 22.0441 20.3597 22.0926 20.397 22.1344C20.6469 22.4619 21.7066 23.7302 23.1258 23.8092C23.1755 23.8121 23.2246 23.8134 23.2736 23.8134C24.3271 23.8134 25.2304 23.1961 25.7083 22.793L26.7381 23.8228C26.8407 23.9255 26.9753 23.9766 27.1098 23.9766C27.2443 23.9766 27.379 23.9255 27.4815 23.8228C27.6869 23.6175 27.6869 23.2846 27.4815 23.0792L26.4522 22.0499ZM25.4875 17.8498C25.8814 18.2274 26.3838 18.8557 26.421 19.5228C26.4602 20.229 26.0218 20.9065 25.7082 21.296C25.2759 20.9017 24.7691 20.2763 24.733 19.6263C24.6936 18.9202 25.1591 18.2384 25.4875 17.8498ZM23.2544 15.6171C23.6484 15.9945 24.1508 16.6227 24.188 17.2899C24.2272 17.996 23.7885 18.674 23.4752 19.0633C23.0426 18.6689 22.536 18.0435 22.4999 17.3933C22.4839 17.1083 22.5511 16.8276 22.6575 16.5682C22.6879 16.5058 22.7168 16.4415 22.7445 16.3759C22.8965 16.0729 23.0922 15.8091 23.2544 15.6171ZM21.023 13.3853C21.4169 13.7627 21.9191 14.3909 21.9565 15.0581C21.9955 15.7642 21.5573 16.4417 21.2437 16.8313C20.8112 16.4369 20.3046 15.8113 20.2682 15.1615C20.229 14.4554 20.6945 13.7738 21.023 13.3853ZM17.0473 17.3623C17.4373 17.0344 18.1207 16.568 18.823 16.6071C19.4309 16.641 20.0169 17.0862 20.4129 17.4973C20.4144 17.4988 20.4154 17.5 20.4166 17.5014L20.4214 17.506C20.4458 17.5316 20.4699 17.5574 20.4929 17.5826C20.1038 17.896 19.4249 18.334 18.7197 18.2952C18.0527 18.2579 17.4249 17.7562 17.0473 17.3623ZM19.2791 19.5941C19.4773 19.4273 19.7513 19.2253 20.0647 19.0715C20.1101 19.052 20.1545 19.0314 20.1982 19.0107C20.4668 18.8959 20.7588 18.8221 21.0545 18.8386C21.6075 18.8695 22.142 19.2407 22.5322 19.6169L22.6528 19.7377C22.6774 19.7633 22.7015 19.7889 22.7245 19.8141C22.3351 20.1275 21.6582 20.5659 20.9513 20.5267C20.2844 20.4894 19.6567 19.9878 19.2791 19.5941ZM24.9575 22.047C24.5682 22.3604 23.891 22.7986 23.1843 22.7598C22.5169 22.7225 21.8887 22.2201 21.5113 21.8263C21.7113 21.6572 21.9894 21.4523 22.3081 21.2981C22.3475 21.2811 22.3863 21.2632 22.4247 21.2451C22.6945 21.1295 22.9888 21.0551 23.2875 21.0716C23.8391 21.1024 24.3721 21.4714 24.762 21.8465L24.8877 21.9724C24.9117 21.9976 24.9351 22.0224 24.9575 22.047Z" fill="white"/>
</svg>
